<?xml version="1.0" standalone="no"?>
<!DOCTYPE svg PUBLIC "-//W3C//DTD SVG 20010904//EN"
 "http://www.w3.org/TR/2001/REC-SVG-20010904/DTD/svg10.dtd">
<svg version="1.0" xmlns="http://www.w3.org/2000/svg"
 width="815.657308pt" height="1223.485962pt" viewBox="-149.345575 0 815.657308 1223.485962"
 preserveAspectRatio="xMidYMid meet">
<g transform="translate(-167.223995,1223.485962) scale(0.100000,-0.100000)"
fill="currentColor" stroke="none">
<path d="M4110 12225 c-186 -28 -304 -77 -408 -169 -35 -31 -72 -61 -82 -66
-41 -22 -172 -185 -208 -259 -103 -210 -132 -480 -80 -754 12 -59 18 -110 15
-113 -3 -3 -24 0 -46 7 -38 11 -43 11 -66 -11 -16 -15 -25 -34 -25 -54 0 -35
26 -192 34 -205 3 -5 10 -42 16 -82 12 -84 88 -252 123 -270 11 -6 40 -12 65
-13 l46 -1 23 -114 c25 -123 54 -196 110 -278 35 -51 36 -55 45 -190 20 -295
-13 -446 -123 -567 -59 -65 -216 -165 -427 -271 -267 -134 -360 -165 -582
-189 -156 -17 -174 -23 -334 -120 -212 -126 -298 -239 -336 -444 -33 -174 -81
-511 -91 -635 -12 -149 -6 -244 33 -552 29 -228 30 -250 22 -430 -11 -233 -11
-547 1 -847 10 -271 0 -375 -56 -593 -50 -199 -57 -241 -75 -505 -8 -124 -20
-292 -25 -375 -15 -200 -5 -550 25 -925 51 -635 53 -815 11 -1056 -12 -70 -12
-90 -1 -131 7 -26 21 -75 30 -108 26 -95 23 -170 -25 -580 -10 -88 -25 -198
-34 -245 -19 -100 -14 -132 24 -180 46 -57 98 -172 171 -378 35 -99 48 -114
128 -146 24 -9 71 -35 105 -57 103 -67 308 -161 340 -156 36 5 47 -19 47 -104
l0 -59 793 0 793 0 13 118 c7 64 16 155 21 202 25 234 31 297 41 450 20 317 8
545 -36 670 -8 24 -15 53 -15 66 0 21 5 24 36 24 20 0 52 9 71 21 l34 21 50
-21 c30 -13 58 -19 71 -15 19 6 20 3 15 -37 -2 -24 -13 -78 -23 -119 -16 -64
-19 -112 -18 -320 0 -135 6 -301 12 -370 7 -69 26 -249 41 -400 16 -151 27
-278 24 -282 -2 -5 353 -8 790 -8 l794 0 7 75 c9 98 11 102 45 97 19 -2 42 5
67 21 22 13 59 33 84 45 51 24 162 91 200 120 14 11 57 35 96 55 38 19 76 42
82 50 11 13 25 49 72 182 47 134 104 265 135 311 38 55 42 84 25 175 -10 52
-17 103 -60 464 -24 194 -25 293 -5 363 49 169 46 150 29 247 -33 187 -29 418
16 955 47 555 53 817 26 1176 -8 121 -20 287 -26 369 -8 123 -18 181 -54 320
-72 282 -73 299 -49 985 3 111 1 274 -7 410 -12 216 -12 233 11 435 19 165 24
262 24 455 -1 240 -2 251 -43 510 -24 146 -50 292 -58 325 -38 147 -132 274
-257 346 -40 23 -104 61 -144 84 -98 58 -148 73 -282 86 -220 20 -341 58 -600
188 -274 138 -393 230 -455 354 -50 100 -60 179 -52 407 l7 185 30 43 c51 71
90 170 112 286 l22 111 39 -2 c64 -4 90 17 140 118 32 62 51 117 61 172 8 45
22 107 30 137 8 30 15 83 15 117 0 94 -32 119 -112 88 -15 -6 -18 -1 -18 28 0
20 6 66 14 104 28 136 21 413 -14 548 -22 85 -83 227 -118 275 -26 35 -134
145 -204 207 -44 40 -222 134 -303 161 -134 45 -288 58 -425 37z m1751 -6027
c0 -2 5 -73 9 -158 8 -151 35 -450 45 -500 12 -60 21 -375 14 -475 -13 -159
-12 -399 0 -480 6 -38 25 -126 41 -195 16 -69 39 -210 50 -315 20 -177 64
-440 111 -650 45 -205 61 -288 84 -450 61 -425 81 -788 51 -900 -12 -43 -14
-47 -19 -25 -4 14 -11 88 -17 165 -6 77 -20 183 -31 235 -24 114 -48 266 -84
535 -45 338 -62 423 -119 605 -38 117 -61 210 -70 285 -25 188 -69 334 -195
655 -63 158 -91 278 -91 388 0 58 21 208 45 322 24 116 63 366 71 455 3 44 17
134 29 200 13 66 26 147 30 180 8 72 23 125 36 125 5 0 9 -1 10 -2z m-3152
-156 c1 -18 10 -67 20 -110 10 -42 24 -135 30 -207 7 -71 21 -179 32 -240 96
-540 92 -511 80 -632 -12 -124 -37 -213 -113 -403 -100 -251 -158 -452 -174
-610 -3 -36 -23 -117 -44 -180 -70 -214 -101 -341 -125 -520 -38 -287 -48
-357 -76 -535 -47 -291 -59 -407 -59 -555 0 -135 0 -135 -19 -110 -25 32 -29
53 -37 176 -7 110 -2 166 52 544 40 279 86 549 115 678 53 235 101 498 109
597 11 128 50 368 79 481 22 88 43 290 36 344 -2 19 -12 120 -21 224 -14 159
-15 209 -5 325 13 146 36 366 51 471 5 36 12 128 15 205 3 77 9 151 12 165 5
22 7 20 23 -25 10 -27 19 -65 19 -83z m3616 -4960 c22 -33 26 -52 30 -142 6
-123 -1 -137 -75 -175 -28 -14 -50 -31 -50 -38 0 -8 -4 -7 -9 3 -9 15 12 301
25 343 17 58 44 61 79 9z m-4096 -29 c7 -16 17 -71 22 -123 6 -52 13 -119 18
-148 11 -72 -8 -83 -63 -36 -22 19 -43 34 -47 34 -17 0 -30 79 -19 119 6 22 8
58 4 80 -6 37 -3 44 26 71 18 16 35 30 39 30 4 0 13 -12 20 -27z m4037 -442
c-4 -5 -40 -28 -81 -50 -40 -23 -79 -49 -84 -58 -9 -15 -10 -13 -11 13 0 51
72 98 158 103 13 0 21 -3 18 -8z"/>
</g>
</svg>
